<svg width="1920" height="213" viewBox="0 0 1920 213" fill="none" xmlns="http://www.w3.org/2000/svg">
<path fill-rule="evenodd" clip-rule="evenodd" d="M0 57.5021L25 73.1599C49 88.8176 98 119.593 148 99.0762C197 78.0192 246 5.66944 295 0.270204C345 -4.58911 394 57.5021 443 73.1599C492 88.8176 542 57.5021 591 52.1028C640 47.2435 689 67.7606 738 99.0762C788 129.852 837 171.426 886 181.684C935 192.483 985 171.426 1034 155.768C1083 140.65 1132 129.852 1182 135.251C1231 140.65 1280 161.167 1329 176.825C1378 192.483 1428 202.741 1477 161.167C1526 119.593 1575 26.1865 1625 21.3272C1674 15.928 1723 99.0762 1772 145.51C1822 192.483 1871 202.741 1895 207.601L1920 213H1895C1871 213 1822 213 1772 213C1723 213 1674 213 1625 213C1575 213 1526 213 1477 213C1428 213 1378 213 1329 213C1280 213 1231 213 1182 213C1132 213 1083 213 1034 213C985 213 935 213 886 213C837 213 788 213 738 213C689 213 640 213 591 213C542 213 492 213 443 213C394 213 345 213 295 213C246 213 197 213 148 213C98 213 49 213 25 213H0V57.5021Z" fill="#212121"/>
</svg>
