<svg width="1920" height="224" viewBox="0 0 1920 224" fill="none" xmlns="http://www.w3.org/2000/svg">
<path fill-rule="evenodd" clip-rule="evenodd" d="M0 112.243L32 102.525C64 93.2928 128 74.8286 192 79.2017C256 84.0607 320 112.243 384 125.848C448 139.939 512 139.939 576 121.475C640 102.525 704 65.5965 768 42.2733C832 18.9501 896 9.2321 960 23.3232C1024 37.4143 1088 74.8286 1152 88.9197C1216 102.525 1280 93.2928 1344 88.9197C1408 84.0607 1472 84.0607 1536 93.2928C1600 102.525 1664 121.475 1728 107.384C1792 93.2928 1856 46.6464 1888 23.3232L1920 0V224H1888C1856 224 1792 224 1728 224C1664 224 1600 224 1536 224C1472 224 1408 224 1344 224C1280 224 1216 224 1152 224C1088 224 1024 224 960 224C896 224 832 224 768 224C704 224 640 224 576 224C512 224 448 224 384 224C320 224 256 224 192 224C128 224 64 224 32 224H0V112.243Z" fill="#121212"/>
</svg>
