<svg width="1920" height="302" viewBox="0 0 1920 302" fill="none" xmlns="http://www.w3.org/2000/svg">
<path fill-rule="evenodd" clip-rule="evenodd" d="M0 39.9177H40C80 39.9177 160 39.9177 240 58.2228C320 77.1816 400 115.099 480 146.479C560 177.86 640 202.702 720 183.743C800 165.438 880 102.678 960 120.983C1040 139.942 1120 240.62 1200 277.884C1280 315.801 1360 290.959 1440 290.959C1520 290.959 1600 315.801 1680 290.959C1760 265.462 1840 190.281 1880 152.363L1920 115.099V2H1880C1840 2 1760 2 1680 2C1600 2 1520 2 1440 2C1360 2 1280 2 1200 2C1120 2 1040 2 960 2C880 2 800 2 720 2C640 2 560 2 480 2C400 2 320 2 240 2C160 2 80 2 40 2H0V39.9177Z" fill="#82583E"/>
<path fill-rule="evenodd" clip-rule="evenodd" d="M0 125.286L29 131.7C58 138.826 116 152.366 175 193.699C233 234.32 291 302.733 349 289.193C407 275.652 465 180.159 524 173.033C582 165.906 640 248.572 698 282.779C756 316.985 815 302.733 873 262.112C931 220.779 989 152.366 1047 111.746C1105 70.4131 1164 56.873 1222 63.2868C1280 70.4131 1338 97.4933 1396 91.0796C1455 83.9532 1513 43.3329 1571 70.4131C1629 97.4933 1687 193.699 1745 227.906C1804 262.112 1862 234.32 1891 220.779L1920 207.239V2H1891C1862 2 1804 2 1745 2C1687 2 1629 2 1571 2C1513 2 1455 2 1396 2C1338 2 1280 2 1222 2C1164 2 1105 2 1047 2C989 2 931 2 873 2C815 2 756 2 698 2C640 2 582 2 524 2C465 2 407 2 349 2C291 2 233 2 175 2C116 2 58 2 29 2H0V125.286Z" fill="#CD844D"/>
<rect width="1920" height="300" fill="url(#paint0_linear_65_222)"/>
<defs>
<linearGradient id="paint0_linear_65_222" x1="960" y1="0" x2="960" y2="300" gradientUnits="userSpaceOnUse">
<stop stop-color="#272727"/>
<stop offset="1" stop-opacity="0"/>
</linearGradient>
</defs>
</svg>
